<svg width="72" height="71" viewBox="0 0 72 71" fill="none" xmlns="http://www.w3.org/2000/svg">
<path d="M0.967041 32.5882C1.14948 31.4043 1.30038 30.2137 1.51986 29.0367C2.92453 21.4935 6.33469 15.0202 11.9259 9.73894C16.5282 5.39187 21.9328 2.51394 28.0906 1.05302C31.6366 0.210771 35.2224 -0.0334001 38.8575 0.258782C41.4048 0.463173 43.8836 0.967976 46.3225 1.69089C47.2594 1.96798 47.7601 2.65248 47.7245 3.48102C47.6902 4.27389 47.1456 4.91175 46.3294 5.13809C46.0304 5.22177 45.756 5.17513 45.4625 5.08871C42.0633 4.08459 38.5996 3.57018 35.044 3.68267C29.8547 3.84728 24.9864 5.17376 20.4857 7.74579C13.2154 11.9008 8.34156 18.0257 5.83812 26.0024C4.465 30.3769 4.13715 34.8557 4.76267 39.4112C5.73387 46.4867 8.73525 52.554 13.7805 57.5842C18.0714 61.8626 23.2154 64.6446 29.1318 65.993C32.6531 66.7955 36.2169 67.0095 39.7848 66.5266C48.5612 65.3373 55.7286 61.2961 61.1415 54.233C64.2143 50.2234 66.1621 45.7089 67.0648 40.7597C67.9605 35.8474 67.645 30.9805 66.2513 26.1835C66.1265 25.7541 65.9303 25.3426 66.0881 24.8597C66.3583 24.0284 66.8988 23.5524 67.7026 23.5209C68.5394 23.4866 69.1731 23.9187 69.4557 24.7582C69.9921 26.3522 70.3707 27.9901 70.619 29.6471C71.0291 32.3783 71.1635 35.1218 70.9468 37.8886C70.5627 42.7871 69.2719 47.425 66.907 51.7145C61.6162 61.3057 53.5599 67.2317 42.8534 69.5513C41.5187 69.8407 40.1675 70.0287 38.8026 70.111C38.6023 70.1233 38.4048 70.1919 38.2059 70.2358H33.8245C33.6503 70.1933 33.4775 70.1247 33.3019 70.1123C28.7326 69.79 24.4061 68.5705 20.3252 66.517C13.535 63.0986 8.40466 57.9751 4.89161 51.2453C3.10148 47.8159 1.89846 44.1849 1.36348 40.3427C1.23316 39.4003 1.1001 38.4579 0.967041 37.5169C0.967041 35.8735 0.967041 34.2315 0.967041 32.5882Z" fill="#211D28"/>
<path d="M0.967041 32.5882C1.14948 31.4043 1.30038 30.2137 1.51986 29.0367C2.92453 21.4935 6.33469 15.0202 11.9259 9.73894C16.5282 5.39187 21.9328 2.51394 28.0906 1.05302C31.6366 0.210771 35.2224 -0.0334001 38.8575 0.258782C41.4048 0.463173 43.8836 0.967976 46.3225 1.69089C47.2594 1.96798 47.7601 2.65248 47.7245 3.48102C47.6902 4.27389 47.1456 4.91175 46.3294 5.13809C46.0304 5.22177 45.756 5.17513 45.4625 5.08871C42.0633 4.08459 38.5996 3.57018 35.044 3.68267C29.8547 3.84728 24.9864 5.17376 20.4857 7.74579C13.2154 11.9008 8.34156 18.0257 5.83812 26.0024C4.465 30.3769 4.13715 34.8557 4.76267 39.4112C5.73387 46.4867 8.73525 52.554 13.7805 57.5842C18.0714 61.8626 23.2154 64.6446 29.1318 65.993C32.6531 66.7955 36.2169 67.0095 39.7848 66.5266C48.5612 65.3373 55.7286 61.2961 61.1415 54.233C64.2143 50.2234 66.1621 45.7089 67.0648 40.7597C67.9605 35.8474 67.645 30.9805 66.2513 26.1835C66.1265 25.7541 65.9303 25.3426 66.0881 24.8597C66.3583 24.0284 66.8988 23.5524 67.7026 23.5209C68.5394 23.4866 69.1731 23.9187 69.4557 24.7582C69.9921 26.3522 70.3707 27.9901 70.619 29.6471C71.0291 32.3783 71.1635 35.1218 70.9468 37.8886C70.5627 42.7871 69.2719 47.425 66.907 51.7145C61.6162 61.3057 53.5599 67.2317 42.8534 69.5513C41.5187 69.8407 40.1675 70.0287 38.8026 70.111C38.6023 70.1233 38.4048 70.1919 38.2059 70.2358H33.8245C33.6503 70.1933 33.4775 70.1247 33.3019 70.1123C28.7326 69.79 24.4061 68.5705 20.3252 66.517C13.535 63.0986 8.40466 57.9751 4.89161 51.2453C3.10148 47.8159 1.89846 44.1849 1.36348 40.3427C1.23316 39.4003 1.1001 38.4579 0.967041 37.5169C0.967041 35.8735 0.967041 34.2315 0.967041 32.5882Z" fill="url(#paint0_linear_2370_85)"/>
<path d="M60.5847 35.1354C60.4558 41.3344 58.4997 46.5896 54.6039 51.0724C50.7959 55.4552 46.0099 58.1589 40.2705 59.1561C27.8452 61.318 15.6517 53.6513 12.531 41.3124C10.0961 31.6869 12.7395 23.3754 20.0852 16.6594C23.6216 13.4262 27.874 11.6058 32.5859 10.8624C34.254 10.599 35.9454 10.5743 37.6312 10.6991C38.7917 10.7855 39.5544 11.7115 39.4365 12.8336C39.3418 13.7444 38.4804 14.2766 37.3459 14.2273C28.9728 13.8651 22.5886 17.3521 18.1497 24.3727C15.8876 27.9516 14.9823 31.9612 15.2141 36.1793C15.7409 45.7898 22.5859 53.4771 31.4008 55.4579C37.5585 56.8406 43.2472 55.7048 48.3775 52.045C52.7932 48.8955 55.5038 44.569 56.6423 39.2918C57.0291 37.5003 57.25 35.6636 56.9921 33.8021C56.8302 32.6306 57.6121 31.7047 58.6698 31.6553C59.6574 31.6087 60.4613 32.4688 60.512 33.6224C60.5381 34.2136 60.5683 34.8062 60.5833 35.1368L60.5847 35.1354Z" fill="#211D28"/>
<path d="M60.5847 35.1354C60.4558 41.3344 58.4997 46.5896 54.6039 51.0724C50.7959 55.4552 46.0099 58.1589 40.2705 59.1561C27.8452 61.318 15.6517 53.6513 12.531 41.3124C10.0961 31.6869 12.7395 23.3754 20.0852 16.6594C23.6216 13.4262 27.874 11.6058 32.5859 10.8624C34.254 10.599 35.9454 10.5743 37.6312 10.6991C38.7917 10.7855 39.5544 11.7115 39.4365 12.8336C39.3418 13.7444 38.4804 14.2766 37.3459 14.2273C28.9728 13.8651 22.5886 17.3521 18.1497 24.3727C15.8876 27.9516 14.9823 31.9612 15.2141 36.1793C15.7409 45.7898 22.5859 53.4771 31.4008 55.4579C37.5585 56.8406 43.2472 55.7048 48.3775 52.045C52.7932 48.8955 55.5038 44.569 56.6423 39.2918C57.0291 37.5003 57.25 35.6636 56.9921 33.8021C56.8302 32.6306 57.6121 31.7047 58.6698 31.6553C59.6574 31.6087 60.4613 32.4688 60.512 33.6224C60.5381 34.2136 60.5683 34.8062 60.5833 35.1368L60.5847 35.1354Z" fill="url(#paint1_linear_2370_85)"/>
<path d="M46.5803 18.8747C46.5803 18.0078 46.5968 17.1408 46.5748 16.2739C46.5556 15.5249 46.7957 14.9172 47.3362 14.3809C50.6846 11.0544 54.0166 7.71141 57.3568 4.37669C58.1634 3.57147 59.1113 3.42744 59.8698 3.97614C60.4734 4.41236 60.5969 5.04748 60.5982 5.72924C60.601 7.14351 60.6298 8.55915 60.5804 9.97205C60.5598 10.555 60.7862 10.6552 61.2882 10.647C62.6792 10.6223 64.0715 10.647 65.4638 10.6291C66.3253 10.6181 67.0729 10.8225 67.4158 11.695C67.7464 12.5345 67.4542 13.2272 66.8273 13.85C63.4597 17.1929 60.1044 20.5482 56.756 23.9104C56.2525 24.4152 55.6723 24.6292 54.9768 24.6264C53.2662 24.6182 51.5543 24.6525 49.8437 24.6072C49.258 24.5908 48.8766 24.7952 48.4829 25.1916C44.8821 28.8185 41.2648 32.4289 37.6544 36.0449C37.2456 36.4537 36.8299 36.8199 36.1962 36.8336C35.4554 36.8501 34.9067 36.5456 34.5762 35.9036C34.236 35.2424 34.2552 34.5606 34.7668 33.9927C35.3759 33.3151 36.0316 32.6786 36.6763 32.0339C39.7902 28.9214 42.9013 25.8061 46.0316 22.7101C46.4349 22.3109 46.6325 21.9145 46.5968 21.337C46.546 20.5194 46.5844 19.695 46.5844 18.8733H46.5803V18.8747ZM57.0975 9.7512C56.9535 9.81156 56.9041 9.81842 56.8753 9.84585C54.6956 12.0201 52.52 14.197 50.3362 16.3671C50.1537 16.5496 50.1085 16.7403 50.1098 16.9776C50.1153 18.1861 50.1277 19.3946 50.1044 20.6031C50.0975 21.0037 50.2429 21.0997 50.6174 21.0956C51.8259 21.0777 53.0344 21.0805 54.2429 21.1038C54.5872 21.1107 54.7875 20.9323 54.9988 20.7197C57.044 18.6703 59.0907 16.6237 61.1346 14.5743C61.2388 14.4686 61.4117 14.3959 61.3486 14.1092C60.5557 14.1092 59.7464 14.1188 58.9357 14.1065C57.7916 14.09 57.1071 13.4042 57.0975 12.2725C57.0907 11.4563 57.0962 10.6401 57.0962 9.74983L57.0975 9.7512Z" fill="#211D28"/>
<path d="M46.5803 18.8747C46.5803 18.0078 46.5968 17.1408 46.5748 16.2739C46.5556 15.5249 46.7957 14.9172 47.3362 14.3809C50.6846 11.0544 54.0166 7.71141 57.3568 4.37669C58.1634 3.57147 59.1113 3.42744 59.8698 3.97614C60.4734 4.41236 60.5969 5.04748 60.5982 5.72924C60.601 7.14351 60.6298 8.55915 60.5804 9.97205C60.5598 10.555 60.7862 10.6552 61.2882 10.647C62.6792 10.6223 64.0715 10.647 65.4638 10.6291C66.3253 10.6181 67.0729 10.8225 67.4158 11.695C67.7464 12.5345 67.4542 13.2272 66.8273 13.85C63.4597 17.1929 60.1044 20.5482 56.756 23.9104C56.2525 24.4152 55.6723 24.6292 54.9768 24.6264C53.2662 24.6182 51.5543 24.6525 49.8437 24.6072C49.258 24.5908 48.8766 24.7952 48.4829 25.1916C44.8821 28.8185 41.2648 32.4289 37.6544 36.0449C37.2456 36.4537 36.8299 36.8199 36.1962 36.8336C35.4554 36.8501 34.9067 36.5456 34.5762 35.9036C34.236 35.2424 34.2552 34.5606 34.7668 33.9927C35.3759 33.3151 36.0316 32.6786 36.6763 32.0339C39.7902 28.9214 42.9013 25.8061 46.0316 22.7101C46.4349 22.3109 46.6325 21.9145 46.5968 21.337C46.546 20.5194 46.5844 19.695 46.5844 18.8733H46.5803V18.8747ZM57.0975 9.7512C56.9535 9.81156 56.9041 9.81842 56.8753 9.84585C54.6956 12.0201 52.52 14.197 50.3362 16.3671C50.1537 16.5496 50.1085 16.7403 50.1098 16.9776C50.1153 18.1861 50.1277 19.3946 50.1044 20.6031C50.0975 21.0037 50.2429 21.0997 50.6174 21.0956C51.8259 21.0777 53.0344 21.0805 54.2429 21.1038C54.5872 21.1107 54.7875 20.9323 54.9988 20.7197C57.044 18.6703 59.0907 16.6237 61.1346 14.5743C61.2388 14.4686 61.4117 14.3959 61.3486 14.1092C60.5557 14.1092 59.7464 14.1188 58.9357 14.1065C57.7916 14.09 57.1071 13.4042 57.0975 12.2725C57.0907 11.4563 57.0962 10.6401 57.0962 9.74983L57.0975 9.7512Z" fill="url(#paint2_linear_2370_85)"/>
<path d="M36.0797 49.0244C29.771 49.1012 23.6804 44.5896 22.3594 37.5223C20.9657 30.0586 26.0426 22.7349 33.4953 21.3563C34.3033 21.2067 35.1085 21.0929 35.9302 21.0956C37.0728 21.0997 37.8849 21.8117 37.9096 22.8309C37.9343 23.8103 37.0961 24.6224 35.9741 24.6279C33.8574 24.6375 31.9137 25.2246 30.2113 26.4496C26.7216 28.9612 25.1372 32.4386 25.8094 36.6581C26.5323 41.1959 29.3142 44.1726 33.7889 45.2645C39.5447 46.6678 45.2649 42.8817 46.4035 37.0875C46.5214 36.4894 46.5777 35.8762 46.5818 35.2562C46.5914 34.1382 47.387 33.2864 48.3527 33.2918C49.3884 33.2973 50.1044 34.1245 50.1058 35.3152C50.1072 42.0066 44.8273 48.008 38.1908 48.8941C37.4857 48.9888 36.7861 49.0093 36.081 49.0244H36.0797Z" fill="#211D28"/>
<path d="M36.0797 49.0244C29.771 49.1012 23.6804 44.5896 22.3594 37.5223C20.9657 30.0586 26.0426 22.7349 33.4953 21.3563C34.3033 21.2067 35.1085 21.0929 35.9302 21.0956C37.0728 21.0997 37.8849 21.8117 37.9096 22.8309C37.9343 23.8103 37.0961 24.6224 35.9741 24.6279C33.8574 24.6375 31.9137 25.2246 30.2113 26.4496C26.7216 28.9612 25.1372 32.4386 25.8094 36.6581C26.5323 41.1959 29.3142 44.1726 33.7889 45.2645C39.5447 46.6678 45.2649 42.8817 46.4035 37.0875C46.5214 36.4894 46.5777 35.8762 46.5818 35.2562C46.5914 34.1382 47.387 33.2864 48.3527 33.2918C49.3884 33.2973 50.1044 34.1245 50.1058 35.3152C50.1072 42.0066 44.8273 48.008 38.1908 48.8941C37.4857 48.9888 36.7861 49.0093 36.081 49.0244H36.0797Z" fill="url(#paint3_linear_2370_85)"/>
<defs>
<linearGradient id="paint0_linear_2370_85" x1="36.0083" y1="0.140625" x2="36.0083" y2="70.2358" gradientUnits="userSpaceOnUse">
<stop stop-color="#507741"/>
<stop offset="1" stop-color="#25371E"/>
</linearGradient>
<linearGradient id="paint1_linear_2370_85" x1="36.1174" y1="10.6265" x2="36.1174" y2="59.52" gradientUnits="userSpaceOnUse">
<stop stop-color="#507741"/>
<stop offset="1" stop-color="#25371E"/>
</linearGradient>
<linearGradient id="paint2_linear_2370_85" x1="50.9503" y1="3.64819" x2="50.9503" y2="36.8343" gradientUnits="userSpaceOnUse">
<stop stop-color="#507741"/>
<stop offset="1" stop-color="#25371E"/>
</linearGradient>
<linearGradient id="paint3_linear_2370_85" x1="36.1174" y1="21.0956" x2="36.1174" y2="49.0254" gradientUnits="userSpaceOnUse">
<stop stop-color="#507741"/>
<stop offset="1" stop-color="#25371E"/>
</linearGradient>
</defs>
</svg>
