<svg width="71" height="71" viewBox="0 0 71 71" fill="none" xmlns="http://www.w3.org/2000/svg">
<path d="M58.4378 70.4854H13.3858C12.2371 69.9533 11.8243 69.0633 11.8591 67.799C11.927 65.3292 11.8757 62.8557 11.8775 60.384C11.8775 59.0059 12.6977 58.1435 14.0703 58.1398C14.5437 58.1398 14.6428 57.9783 14.6299 57.5453C14.6024 56.5856 14.5969 55.6222 14.6336 54.6626C14.6501 54.213 14.4997 53.8827 14.2226 53.5524C11.1527 49.8862 8.11949 46.1905 5.02208 42.55C2.20725 39.2416 0.829195 35.4725 0.867729 31.1108C0.933788 23.9251 0.887914 16.7376 0.880574 9.5519C0.880574 9.02343 0.928283 8.50597 1.03655 7.98851C1.58336 5.37736 4.15965 3.25798 6.75428 3.17174C10.3526 3.05063 13.3234 5.96088 13.2647 9.60878C13.1895 14.2989 13.2464 18.9928 13.2519 23.6848C13.2519 23.9233 13.173 24.1784 13.3234 24.4041C13.3822 24.3986 13.4372 24.4114 13.4666 24.3912C16.1218 22.5049 19.5274 23.0866 21.6211 25.2922C26.3682 30.2925 31.6327 34.7954 36.0164 40.2086C36.8935 38.5993 38.2165 37.28 39.5414 35.9606C43.2388 32.2797 46.9069 28.5676 50.6337 24.916C52.0503 23.527 53.8118 23.0297 55.8028 23.349C56.7826 23.5068 57.6432 23.9325 58.5754 24.4518C58.5754 24.1105 58.5754 23.8866 58.5754 23.6627C58.5772 18.8111 58.5607 13.9595 58.5901 9.106C58.6084 5.95904 61.4123 3.25064 64.5372 3.17724C68.0126 3.09467 70.9761 5.90766 70.9522 9.57208C70.9045 16.9413 70.9265 24.3105 70.9394 31.6815C70.9467 35.6891 69.6274 39.192 67.0658 42.2527C64.0124 45.9025 60.9755 49.565 57.9093 53.2056C57.4157 53.791 57.1111 54.3671 57.1863 55.1653C57.2597 55.9599 57.2285 56.7673 57.1937 57.5673C57.1753 58.0205 57.324 58.138 57.7717 58.1398C59.1571 58.1472 59.9479 58.9857 59.9498 60.3876C59.9516 62.8593 59.9021 65.3329 59.97 67.8027C60.0048 69.0688 59.5938 69.9588 58.4396 70.4891L58.4378 70.4854ZM9.13056 18.0771C9.13056 15.2164 9.1379 12.3557 9.12689 9.49501C9.12138 7.86924 7.61855 6.849 6.20746 7.51142C5.31751 7.92979 5.00006 8.68579 5.0019 9.6363C5.0074 16.9358 5.01291 24.2371 5.0019 31.5366C4.99639 34.5294 5.91571 37.1772 7.83691 39.4801C11.2536 43.5721 14.6611 47.6695 18.0778 51.7597C18.5201 52.29 18.7659 52.8606 18.7513 53.5708C18.7219 54.8736 18.7659 56.1801 18.7311 57.4829C18.7182 57.9875 18.8448 58.138 19.3696 58.1361C23.9699 58.1141 28.5701 58.1123 33.1685 58.1361C33.7686 58.1398 33.8677 57.9325 33.864 57.393C33.8401 54.2809 33.886 51.1688 33.842 48.0567C33.8034 45.3501 33.0364 42.8252 31.1831 40.827C27.0618 36.379 22.6634 32.2008 18.3806 27.9107C17.931 27.4611 17.3273 27.2758 16.6722 27.4097C15.8685 27.5749 15.2795 28.0299 15.0648 28.8282C14.8428 29.6539 15.0501 30.3897 15.6869 31.0191C18.3861 33.6908 21.0725 36.3772 23.7534 39.0672C24.636 39.9535 24.6562 41.2582 23.8396 42.0747C23.0102 42.9041 21.7294 42.884 20.8376 41.994C17.887 39.0544 14.9199 36.1313 12.0133 33.1495C10.1031 31.1897 9.1379 28.7951 9.13239 26.0372C9.12872 23.382 9.13239 20.7286 9.13239 18.0735L9.13056 18.0771ZM66.818 20.9764C66.818 17.178 66.818 13.3796 66.818 9.57942C66.818 8.51514 66.3098 7.72978 65.4437 7.43619C63.9922 6.94258 62.7004 7.96282 62.6986 9.62162C62.693 15.0916 62.6931 20.5598 62.6967 26.0298C62.6967 28.8153 61.7132 31.2026 59.7865 33.1954C58.4818 34.5441 57.1423 35.8579 55.8156 37.1846C54.1972 38.803 52.5824 40.4233 50.953 42.0307C50.197 42.7775 49.2391 42.8931 48.384 42.3848C47.6115 41.9261 47.2408 41.0031 47.4629 40.0655C47.6207 39.4012 48.1418 38.9957 48.5895 38.5479C51.0961 36.0414 53.6045 33.5385 56.1184 31.0374C56.801 30.3585 57.0377 29.5621 56.6872 28.663C56.1239 27.2189 54.4137 26.94 53.254 28.096C49.3162 32.021 45.382 35.9496 41.4552 39.8856C39.2991 42.0472 38.0844 44.6712 37.9945 47.7136C37.8972 51.0055 37.9816 54.3029 37.9651 57.5985C37.9633 58.0297 38.0954 58.1306 38.5101 58.1306C43.1782 58.1178 47.8464 58.1178 52.5145 58.1325C52.9659 58.1325 53.1017 58.004 53.0925 57.5526C53.065 56.2039 53.1035 54.8516 53.076 53.5029C53.0632 52.8423 53.2907 52.3046 53.6981 51.8147C56.9771 47.8805 60.2159 43.9115 63.5481 40.0214C65.8106 37.3809 66.9098 34.4046 66.8346 30.9273C66.763 27.6116 66.8199 24.2921 66.818 20.9727V20.9764ZM24.9369 66.3659C27.7059 66.3659 30.4748 66.3549 33.2456 66.3769C33.7245 66.3806 33.8805 66.2558 33.8622 65.7677C33.8255 64.8081 33.82 63.8447 33.864 62.885C33.8878 62.3584 33.7172 62.2281 33.2107 62.2354C31.106 62.2611 28.9995 62.2465 26.8948 62.2465C23.4855 62.2465 20.0743 62.2556 16.6649 62.2318C16.1254 62.2281 15.9566 62.3767 15.9823 62.9199C16.0282 63.8557 16.0245 64.7971 15.9823 65.7347C15.9584 66.2522 16.1144 66.3843 16.6282 66.3806C19.3972 66.3549 22.1661 66.3678 24.9369 66.3696V66.3659ZM46.8665 66.3659C49.6593 66.3659 52.4521 66.3586 55.2449 66.3751C55.6743 66.3769 55.856 66.2925 55.8395 65.8155C55.8046 64.8099 55.812 63.8007 55.8376 62.7951C55.8468 62.3914 55.7514 62.2391 55.3128 62.2391C49.7052 62.252 44.0976 62.2501 38.4881 62.2354C38.044 62.2354 37.9541 62.4024 37.9651 62.8006C37.989 63.7383 38.0073 64.6796 37.9596 65.6154C37.9303 66.1935 38.0569 66.3935 38.6954 66.3843C41.4185 66.3421 44.1434 66.3659 46.8665 66.3678V66.3659Z" fill="#211D28"/>
<path d="M58.4378 70.4854H13.3858C12.2371 69.9533 11.8243 69.0633 11.8591 67.799C11.927 65.3292 11.8757 62.8557 11.8775 60.384C11.8775 59.0059 12.6977 58.1435 14.0703 58.1398C14.5437 58.1398 14.6428 57.9783 14.6299 57.5453C14.6024 56.5856 14.5969 55.6222 14.6336 54.6626C14.6501 54.213 14.4997 53.8827 14.2226 53.5524C11.1527 49.8862 8.11949 46.1905 5.02208 42.55C2.20725 39.2416 0.829195 35.4725 0.867729 31.1108C0.933788 23.9251 0.887914 16.7376 0.880574 9.5519C0.880574 9.02343 0.928283 8.50597 1.03655 7.98851C1.58336 5.37736 4.15965 3.25798 6.75428 3.17174C10.3526 3.05063 13.3234 5.96088 13.2647 9.60878C13.1895 14.2989 13.2464 18.9928 13.2519 23.6848C13.2519 23.9233 13.173 24.1784 13.3234 24.4041C13.3822 24.3986 13.4372 24.4114 13.4666 24.3912C16.1218 22.5049 19.5274 23.0866 21.6211 25.2922C26.3682 30.2925 31.6327 34.7954 36.0164 40.2086C36.8935 38.5993 38.2165 37.28 39.5414 35.9606C43.2388 32.2797 46.9069 28.5676 50.6337 24.916C52.0503 23.527 53.8118 23.0297 55.8028 23.349C56.7826 23.5068 57.6432 23.9325 58.5754 24.4518C58.5754 24.1105 58.5754 23.8866 58.5754 23.6627C58.5772 18.8111 58.5607 13.9595 58.5901 9.106C58.6084 5.95904 61.4123 3.25064 64.5372 3.17724C68.0126 3.09467 70.9761 5.90766 70.9522 9.57208C70.9045 16.9413 70.9265 24.3105 70.9394 31.6815C70.9467 35.6891 69.6274 39.192 67.0658 42.2527C64.0124 45.9025 60.9755 49.565 57.9093 53.2056C57.4157 53.791 57.1111 54.3671 57.1863 55.1653C57.2597 55.9599 57.2285 56.7673 57.1937 57.5673C57.1753 58.0205 57.324 58.138 57.7717 58.1398C59.1571 58.1472 59.9479 58.9857 59.9498 60.3876C59.9516 62.8593 59.9021 65.3329 59.97 67.8027C60.0048 69.0688 59.5938 69.9588 58.4396 70.4891L58.4378 70.4854ZM9.13056 18.0771C9.13056 15.2164 9.1379 12.3557 9.12689 9.49501C9.12138 7.86924 7.61855 6.849 6.20746 7.51142C5.31751 7.92979 5.00006 8.68579 5.0019 9.6363C5.0074 16.9358 5.01291 24.2371 5.0019 31.5366C4.99639 34.5294 5.91571 37.1772 7.83691 39.4801C11.2536 43.5721 14.6611 47.6695 18.0778 51.7597C18.5201 52.29 18.7659 52.8606 18.7513 53.5708C18.7219 54.8736 18.7659 56.1801 18.7311 57.4829C18.7182 57.9875 18.8448 58.138 19.3696 58.1361C23.9699 58.1141 28.5701 58.1123 33.1685 58.1361C33.7686 58.1398 33.8677 57.9325 33.864 57.393C33.8401 54.2809 33.886 51.1688 33.842 48.0567C33.8034 45.3501 33.0364 42.8252 31.1831 40.827C27.0618 36.379 22.6634 32.2008 18.3806 27.9107C17.931 27.4611 17.3273 27.2758 16.6722 27.4097C15.8685 27.5749 15.2795 28.0299 15.0648 28.8282C14.8428 29.6539 15.0501 30.3897 15.6869 31.0191C18.3861 33.6908 21.0725 36.3772 23.7534 39.0672C24.636 39.9535 24.6562 41.2582 23.8396 42.0747C23.0102 42.9041 21.7294 42.884 20.8376 41.994C17.887 39.0544 14.9199 36.1313 12.0133 33.1495C10.1031 31.1897 9.1379 28.7951 9.13239 26.0372C9.12872 23.382 9.13239 20.7286 9.13239 18.0735L9.13056 18.0771ZM66.818 20.9764C66.818 17.178 66.818 13.3796 66.818 9.57942C66.818 8.51514 66.3098 7.72978 65.4437 7.43619C63.9922 6.94258 62.7004 7.96282 62.6986 9.62162C62.693 15.0916 62.6931 20.5598 62.6967 26.0298C62.6967 28.8153 61.7132 31.2026 59.7865 33.1954C58.4818 34.5441 57.1423 35.8579 55.8156 37.1846C54.1972 38.803 52.5824 40.4233 50.953 42.0307C50.197 42.7775 49.2391 42.8931 48.384 42.3848C47.6115 41.9261 47.2408 41.0031 47.4629 40.0655C47.6207 39.4012 48.1418 38.9957 48.5895 38.5479C51.0961 36.0414 53.6045 33.5385 56.1184 31.0374C56.801 30.3585 57.0377 29.5621 56.6872 28.663C56.1239 27.2189 54.4137 26.94 53.254 28.096C49.3162 32.021 45.382 35.9496 41.4552 39.8856C39.2991 42.0472 38.0844 44.6712 37.9945 47.7136C37.8972 51.0055 37.9816 54.3029 37.9651 57.5985C37.9633 58.0297 38.0954 58.1306 38.5101 58.1306C43.1782 58.1178 47.8464 58.1178 52.5145 58.1325C52.9659 58.1325 53.1017 58.004 53.0925 57.5526C53.065 56.2039 53.1035 54.8516 53.076 53.5029C53.0632 52.8423 53.2907 52.3046 53.6981 51.8147C56.9771 47.8805 60.2159 43.9115 63.5481 40.0214C65.8106 37.3809 66.9098 34.4046 66.8346 30.9273C66.763 27.6116 66.8199 24.2921 66.818 20.9727V20.9764ZM24.9369 66.3659C27.7059 66.3659 30.4748 66.3549 33.2456 66.3769C33.7245 66.3806 33.8805 66.2558 33.8622 65.7677C33.8255 64.8081 33.82 63.8447 33.864 62.885C33.8878 62.3584 33.7172 62.2281 33.2107 62.2354C31.106 62.2611 28.9995 62.2465 26.8948 62.2465C23.4855 62.2465 20.0743 62.2556 16.6649 62.2318C16.1254 62.2281 15.9566 62.3767 15.9823 62.9199C16.0282 63.8557 16.0245 64.7971 15.9823 65.7347C15.9584 66.2522 16.1144 66.3843 16.6282 66.3806C19.3972 66.3549 22.1661 66.3678 24.9369 66.3696V66.3659ZM46.8665 66.3659C49.6593 66.3659 52.4521 66.3586 55.2449 66.3751C55.6743 66.3769 55.856 66.2925 55.8395 65.8155C55.8046 64.8099 55.812 63.8007 55.8376 62.7951C55.8468 62.3914 55.7514 62.2391 55.3128 62.2391C49.7052 62.252 44.0976 62.2501 38.4881 62.2354C38.044 62.2354 37.9541 62.4024 37.9651 62.8006C37.989 63.7383 38.0073 64.6796 37.9596 65.6154C37.9303 66.1935 38.0569 66.3935 38.6954 66.3843C41.4185 66.3421 44.1434 66.3659 46.8665 66.3678V66.3659Z" fill="url(#paint0_linear_2370_83)"/>
<path d="M28.9958 0.1587C31.3959 0.204574 33.4988 0.995442 35.2365 2.68728C35.6854 3.124 36.1289 3.13011 36.5668 2.70562C40.7579 -1.35698 47.472 -0.470692 50.4703 4.54059C52.4301 7.81599 52.0612 12.2034 49.395 14.9577C45.448 19.0368 41.3983 23.0131 37.3761 27.0189C36.5155 27.8758 35.2842 27.8574 34.4273 27.0023C30.4729 23.059 26.4782 19.156 22.6028 15.1356C20.2375 12.6805 19.5366 9.66012 20.5605 6.38656C21.5844 3.10932 23.9093 1.13306 27.2251 0.325681C27.7957 0.186224 28.3939 0.0999811 28.9976 0.1587H28.9958ZM29.005 4.26901C27.0489 4.36993 25.5479 5.26356 24.6965 7.09301C23.8744 8.86008 24.2176 10.9042 25.5883 12.2915C28.8857 15.6237 32.2161 18.9248 35.5264 22.2461C35.8053 22.525 35.965 22.5819 36.2861 22.259C39.5707 18.9469 42.8864 15.6641 46.171 12.3502C47.2592 11.2529 47.7087 9.91335 47.472 8.3518C47.1876 6.47647 46.1325 5.21585 44.3948 4.57912C42.6406 3.93688 41.0129 4.2947 39.6184 5.53513C38.9009 6.17186 38.2477 6.88016 37.5669 7.55726C36.4934 8.62521 35.3649 8.62888 34.2731 7.55726C33.6529 6.94805 33.0437 6.32784 32.429 5.71313C31.495 4.78097 30.3555 4.3314 29.0068 4.26718L29.005 4.26901Z" fill="#211D28"/>
<path d="M28.9958 0.1587C31.3959 0.204574 33.4988 0.995442 35.2365 2.68728C35.6854 3.124 36.1289 3.13011 36.5668 2.70562C40.7579 -1.35698 47.472 -0.470692 50.4703 4.54059C52.4301 7.81599 52.0612 12.2034 49.395 14.9577C45.448 19.0368 41.3983 23.0131 37.3761 27.0189C36.5155 27.8758 35.2842 27.8574 34.4273 27.0023C30.4729 23.059 26.4782 19.156 22.6028 15.1356C20.2375 12.6805 19.5366 9.66012 20.5605 6.38656C21.5844 3.10932 23.9093 1.13306 27.2251 0.325681C27.7957 0.186224 28.3939 0.0999811 28.9976 0.1587H28.9958ZM29.005 4.26901C27.0489 4.36993 25.5479 5.26356 24.6965 7.09301C23.8744 8.86008 24.2176 10.9042 25.5883 12.2915C28.8857 15.6237 32.2161 18.9248 35.5264 22.2461C35.8053 22.525 35.965 22.5819 36.2861 22.259C39.5707 18.9469 42.8864 15.6641 46.171 12.3502C47.2592 11.2529 47.7087 9.91335 47.472 8.3518C47.1876 6.47647 46.1325 5.21585 44.3948 4.57912C42.6406 3.93688 41.0129 4.2947 39.6184 5.53513C38.9009 6.17186 38.2477 6.88016 37.5669 7.55726C36.4934 8.62521 35.3649 8.62888 34.2731 7.55726C33.6529 6.94805 33.0437 6.32784 32.429 5.71313C31.495 4.78097 30.3555 4.3314 29.0068 4.26718L29.005 4.26901Z" fill="url(#paint1_linear_2370_83)"/>
<defs>
<linearGradient id="paint0_linear_2370_83" x1="35.9096" y1="3.16809" x2="35.9096" y2="70.4891" gradientUnits="userSpaceOnUse">
<stop stop-color="#507741"/>
<stop offset="1" stop-color="#25371E"/>
</linearGradient>
<linearGradient id="paint1_linear_2370_83" x1="35.9063" y1="0.140015" x2="35.9063" y2="27.6527" gradientUnits="userSpaceOnUse">
<stop stop-color="#507741"/>
<stop offset="1" stop-color="#25371E"/>
</linearGradient>
</defs>
</svg>
