<svg width="71" height="46" viewBox="0 0 71 46" fill="none" xmlns="http://www.w3.org/2000/svg">
<path d="M70.3306 23.6034C69.0157 25.8938 67.1832 27.7726 65.3968 29.6755C61.4128 33.9202 56.9676 37.6145 51.9104 40.5254C48 42.7763 43.8617 44.4323 39.3651 45.0872C33.6221 45.922 28.1449 44.9637 22.8734 42.6426C16.6762 39.9134 11.3996 35.8779 6.61835 31.1464C4.63832 29.1869 2.80572 27.0972 1.0777 24.9149C0.00111561 23.5537 -0.0400278 22.6211 1.04856 21.236C5.07547 16.1136 9.6921 11.605 15.0545 7.88495C19.0437 5.11805 23.2986 2.89288 28.0335 1.67401C31.2255 0.851139 34.4553 0.568278 37.7502 0.854567C43.3131 1.338 48.3189 3.37632 53.023 6.25807C59.4945 10.2233 64.9065 15.3645 69.59 21.3028C69.8798 21.6697 70.0855 22.1051 70.3306 22.508V23.6034ZM35.3056 5.36834C34.253 5.33406 33.2056 5.40949 32.1684 5.56206C27.8758 6.19807 23.9431 7.80952 20.254 10.045C14.7373 13.3862 10.0641 17.6959 5.89834 22.5886C5.56576 22.9777 5.61033 23.1903 5.91719 23.5417C7.97265 25.8989 10.1104 28.1704 12.4539 30.2464C15.9682 33.3579 19.7448 36.0802 24.0203 38.0585C27.1112 39.4899 30.3341 40.4842 33.7507 40.7037C38.8971 41.0345 43.6526 39.6408 48.1578 37.2751C54.6756 33.8516 59.9933 28.9795 64.7557 23.4423C65.042 23.1097 64.9854 22.9263 64.7317 22.6486C63.9465 21.7914 63.194 20.9051 62.4037 20.0531C58.4419 15.7828 54.0361 12.0593 48.9138 9.24439C44.6777 6.91636 40.2034 5.38377 35.3056 5.36663V5.36834Z" fill="#211D28"/>
<path d="M70.3306 23.6034C69.0157 25.8938 67.1832 27.7726 65.3968 29.6755C61.4128 33.9202 56.9676 37.6145 51.9104 40.5254C48 42.7763 43.8617 44.4323 39.3651 45.0872C33.6221 45.922 28.1449 44.9637 22.8734 42.6426C16.6762 39.9134 11.3996 35.8779 6.61835 31.1464C4.63832 29.1869 2.80572 27.0972 1.0777 24.9149C0.00111561 23.5537 -0.0400278 22.6211 1.04856 21.236C5.07547 16.1136 9.6921 11.605 15.0545 7.88495C19.0437 5.11805 23.2986 2.89288 28.0335 1.67401C31.2255 0.851139 34.4553 0.568278 37.7502 0.854567C43.3131 1.338 48.3189 3.37632 53.023 6.25807C59.4945 10.2233 64.9065 15.3645 69.59 21.3028C69.8798 21.6697 70.0855 22.1051 70.3306 22.508V23.6034ZM35.3056 5.36834C34.253 5.33406 33.2056 5.40949 32.1684 5.56206C27.8758 6.19807 23.9431 7.80952 20.254 10.045C14.7373 13.3862 10.0641 17.6959 5.89834 22.5886C5.56576 22.9777 5.61033 23.1903 5.91719 23.5417C7.97265 25.8989 10.1104 28.1704 12.4539 30.2464C15.9682 33.3579 19.7448 36.0802 24.0203 38.0585C27.1112 39.4899 30.3341 40.4842 33.7507 40.7037C38.8971 41.0345 43.6526 39.6408 48.1578 37.2751C54.6756 33.8516 59.9933 28.9795 64.7557 23.4423C65.042 23.1097 64.9854 22.9263 64.7317 22.6486C63.9465 21.7914 63.194 20.9051 62.4037 20.0531C58.4419 15.7828 54.0361 12.0593 48.9138 9.24439C44.6777 6.91636 40.2034 5.38377 35.3056 5.36663V5.36834Z" fill="url(#paint0_linear_2370_84)"/>
<path d="M35.2799 36.9115C27.634 36.9509 21.4522 30.6251 21.4334 23.0736C21.4145 15.4844 27.67 9.21343 35.2576 9.20143C42.8468 9.18943 49.1606 15.4209 49.1418 23.077C49.1246 30.6954 42.9805 36.8789 35.2781 36.9132L35.2799 36.9115ZM35.2661 32.264C40.3508 32.2863 44.4737 28.2063 44.5046 23.1199C44.5371 17.989 40.4794 13.8901 35.3193 13.8369C30.2278 13.7855 26.0997 17.9084 26.0826 23.065C26.0655 28.1445 30.1558 32.2435 35.2644 32.2657L35.2661 32.264Z" fill="#211D28"/>
<path d="M35.2799 36.9115C27.634 36.9509 21.4522 30.6251 21.4334 23.0736C21.4145 15.4844 27.67 9.21343 35.2576 9.20143C42.8468 9.18943 49.1606 15.4209 49.1418 23.077C49.1246 30.6954 42.9805 36.8789 35.2781 36.9132L35.2799 36.9115ZM35.2661 32.264C40.3508 32.2863 44.4737 28.2063 44.5046 23.1199C44.5371 17.989 40.4794 13.8901 35.3193 13.8369C30.2278 13.7855 26.0997 17.9084 26.0826 23.065C26.0655 28.1445 30.1558 32.2435 35.2644 32.2657L35.2661 32.264Z" fill="url(#paint1_linear_2370_84)"/>
<defs>
<linearGradient id="paint0_linear_2370_84" x1="35.2908" y1="0.746094" x2="35.2908" y2="45.3843" gradientUnits="userSpaceOnUse">
<stop stop-color="#507741"/>
<stop offset="1" stop-color="#25371E"/>
</linearGradient>
<linearGradient id="paint1_linear_2370_84" x1="35.2876" y1="9.20142" x2="35.2876" y2="36.9132" gradientUnits="userSpaceOnUse">
<stop stop-color="#507741"/>
<stop offset="1" stop-color="#25371E"/>
</linearGradient>
</defs>
</svg>
