<svg width="20" height="21" viewBox="0 0 20 21" fill="none" xmlns="http://www.w3.org/2000/svg">
<path d="M16.2633 0.654297H3.78988C1.73345 0.654297 0.0606689 2.3254 0.0606689 4.37967V16.8394C0.0606689 18.8934 1.73345 20.5645 3.78988 20.5645H16.2635C18.32 20.5645 19.9927 18.8934 19.9927 16.8394V4.37967C19.9927 2.3254 18.3197 0.654297 16.2633 0.654297ZM3.78988 1.83067H16.2635C17.6705 1.83067 18.8152 2.97417 18.8152 4.37967V10.0211H15.3921C15.2906 9.09186 14.9514 8.23316 14.4369 7.50594C14.4398 7.50594 14.4427 7.50642 14.4453 7.50642C15.6359 7.50642 16.6042 6.53878 16.6042 5.3497C16.6042 4.16061 15.6359 3.19298 14.4453 3.19298C13.2551 3.19298 12.2865 4.16061 12.2865 5.3497C12.2865 5.47974 12.2999 5.60666 12.3222 5.72999C11.6252 5.40176 10.8471 5.21702 10.0266 5.21678C7.24917 5.21726 4.95569 7.32383 4.6613 10.0211H1.23824V4.37967C1.23824 2.97393 2.3827 1.83067 3.78988 1.83067ZM14.2469 10.6094C14.2469 12.9338 12.3536 14.8252 10.0263 14.8252C7.69951 14.8252 5.80624 12.9338 5.80624 10.6094C5.80624 8.28499 7.69951 6.39363 10.0263 6.39315C12.3536 6.39363 14.2469 8.28499 14.2469 10.6094ZM13.464 5.3497C13.464 4.80914 13.9043 4.36935 14.4453 4.36935C14.9864 4.36935 15.4267 4.80914 15.4267 5.3497C15.4267 5.89026 14.9864 6.33005 14.4453 6.33005C13.9043 6.33005 13.464 5.89026 13.464 5.3497ZM16.2633 19.3879H3.78988C2.38294 19.3879 1.23824 18.2447 1.23824 16.8392V11.1975H4.6613C4.95569 13.895 7.24917 16.0016 10.0263 16.0016C12.804 16.0016 15.0975 13.895 15.3919 11.1975H18.8149V16.8392C18.8149 18.2447 17.6705 19.3879 16.2633 19.3879Z" fill="#FFFFFF"/>
</svg>
