<svg width="27" height="27" viewBox="0 0 27 27" fill="none" xmlns="http://www.w3.org/2000/svg">
<path d="M20.3473 20.8685C19.8441 20.8703 19.3455 20.7724 18.8804 20.5804C18.4153 20.3884 17.9928 20.1062 17.6374 19.75L13.723 15.8331C13.5846 15.7007 13.4004 15.6268 13.2088 15.6268C13.0172 15.6268 12.8331 15.7007 12.6946 15.8331L8.767 19.7607C8.41181 20.1175 7.98945 20.4003 7.52432 20.5928C7.05919 20.7854 6.56052 20.8838 6.05711 20.8825H5.29077L10.2509 25.8427C10.9948 26.585 12.0029 27.0019 13.0538 27.0019C14.1048 27.0019 15.1128 26.585 15.8567 25.8427L20.8268 20.8718L20.3473 20.8685Z" fill="#304727"/>
<path d="M6.05794 7.02637C6.56135 7.02502 7.06004 7.12347 7.52518 7.31603C7.99031 7.50858 8.41267 7.79142 8.76783 8.14819L12.6954 12.0766C12.832 12.2127 13.0169 12.2891 13.2096 12.2891C13.4024 12.2891 13.5873 12.2127 13.7238 12.0766L17.6374 8.16307C17.9923 7.80585 18.4145 7.52267 18.8797 7.32995C19.3449 7.13723 19.8438 7.03882 20.3473 7.04042H20.8185L15.8484 2.07036C15.4804 1.70219 15.0434 1.41013 14.5625 1.21088C14.0816 1.01162 13.5661 0.909058 13.0455 0.909058C12.525 0.909058 12.0095 1.01162 11.5286 1.21088C11.0476 1.41013 10.6107 1.70219 10.2426 2.07036L5.29077 7.02637H6.05794Z" fill="#304727"/>
<path d="M24.9296 11.1523L21.9262 8.14897C21.8585 8.17665 21.7861 8.19124 21.713 8.19196H20.3473C19.6366 8.19374 18.9554 8.47597 18.4517 8.97731L14.5381 12.8884C14.1857 13.2402 13.708 13.4378 13.21 13.4378C12.712 13.4378 12.2344 13.2402 11.8819 12.8884L7.95352 8.96243C7.44995 8.46079 6.7687 8.17825 6.05792 8.17625H4.38139C4.31229 8.17469 4.24401 8.16098 4.17968 8.13574L1.1573 11.1523C0.414957 11.8963 -0.00195312 12.9043 -0.00195312 13.9552C-0.00195312 15.0062 0.414957 16.0142 1.1573 16.7581L4.17306 19.7739C4.23726 19.7482 4.30563 19.7345 4.37478 19.7334H6.05792C6.76868 19.7313 7.4499 19.4488 7.95352 18.9472L11.8811 15.0196C12.5912 14.3103 13.8288 14.3103 14.5381 15.0196L18.4517 18.9323C18.9554 19.4337 19.6366 19.7159 20.3473 19.7177H21.713C21.7861 19.7182 21.8586 19.7328 21.9262 19.7607L24.9296 16.7573C25.2978 16.3893 25.5898 15.9523 25.7891 15.4714C25.9883 14.9904 26.0909 14.475 26.0909 13.9544C26.0909 13.4338 25.9883 12.9184 25.7891 12.4374C25.5898 11.9565 25.2978 11.5195 24.9296 11.1515" fill="#304727"/>
</svg>
