<svg width="19" height="28" viewBox="0 0 19 28" fill="none" xmlns="http://www.w3.org/2000/svg">
<path d="M3.63036 8.93262C3.63036 9.7316 3.76919 10.4667 4.04816 11.1385C4.32614 11.8099 4.71065 12.3912 5.20069 12.8812C5.69106 13.3716 6.26533 13.7558 6.92515 14.0341C7.58465 14.3128 8.29574 14.4516 9.0581 14.4516C9.82046 14.4516 10.5312 14.3128 11.1914 14.0341C11.8505 13.7558 12.4285 13.3716 12.9248 12.8812C13.4209 12.3912 13.811 11.8099 14.0957 11.1385C14.38 10.4667 14.5221 9.7316 14.5221 8.93262C14.5221 8.13398 14.38 7.39858 14.0957 6.72677C13.811 6.05497 13.4209 5.47404 12.9248 4.98367C12.4285 4.49363 11.8505 4.10978 11.1914 3.83114C10.5312 3.55283 9.82046 3.41367 9.0581 3.41367C8.29574 3.41367 7.58465 3.55283 6.92515 3.83114C6.26533 4.10978 5.69106 4.49363 5.20069 4.98367C4.71065 5.47404 4.32614 6.05497 4.04816 6.72677C3.76919 7.39858 3.63036 8.13398 3.63036 8.93262ZM14.9036 23.511H10.8551V27.5595H7.35194V23.511H3.28547V19.9892H7.35194V17.7197C6.31094 17.5263 5.34284 17.1631 4.44732 16.6305C3.5518 16.0978 2.77412 15.4443 2.11463 14.6696C1.45481 13.895 0.937469 13.0174 0.562615 12.037C0.187427 11.0569 0 10.0219 0 8.93262C0 7.71018 0.241691 6.55732 0.726073 5.47404C1.20979 4.39109 1.86329 3.44397 2.68657 2.63267C3.50918 1.82204 4.47129 1.18053 5.57288 0.708462C6.67381 0.236398 7.83566 0.000366211 9.0581 0.000366211C10.2802 0.000366211 11.4421 0.236398 12.5436 0.708462C13.6446 1.18053 14.6097 1.82204 15.4389 2.63267C16.2679 3.44397 16.9274 4.39109 17.4178 5.47404C17.9078 6.55732 18.1528 7.71018 18.1528 8.93262C18.1528 10.0219 17.9651 11.0539 17.5902 12.028C17.215 13.0024 16.7007 13.877 16.0472 14.6517C15.3937 15.426 14.622 16.0795 13.7325 16.6121C12.8433 17.1448 11.8838 17.508 10.8551 17.7014V19.9892H14.9036V23.511Z" fill="#E09132"/>
</svg>
