<svg width="25" height="25" viewBox="0 0 25 25" fill="none" xmlns="http://www.w3.org/2000/svg">
<path fill-rule="evenodd" clip-rule="evenodd" d="M19.5164 2.86373L15.3927 6.9848C11.6295 4.18804 6.27867 4.49564 2.86369 7.90829C-0.887182 11.6592 -0.887182 17.75 2.86369 21.5009C6.61457 25.2518 12.7111 25.2518 16.462 21.5009C19.877 18.0879 20.1836 12.7388 17.3861 8.97659L21.4023 4.96138V8.74189H24.2204V0.00271606L15.4506 0.0839456L15.4796 2.90101L19.5164 2.86373ZM4.85715 19.5088C2.20487 16.8572 2.20487 12.552 4.85715 9.90007C7.50976 7.24879 11.8159 7.24879 14.4685 9.90007C17.1208 12.552 17.1208 16.8572 14.4685 19.5088C11.8159 22.1604 7.50976 22.1604 4.85715 19.5088Z" fill="#E09132"/>
</svg>
